<svg width="20" height="24" viewBox="0 0 20 24" fill="none" xmlns="http://www.w3.org/2000/svg">
<path d="M20 23.3135L14.75 18.3135L15.38 20.3135H2.5C1.83696 20.3135 1.20107 20.0501 0.732233 19.5812C0.263392 19.1124 0 18.4765 0 17.8135V2.81348C0 2.15044 0.263392 1.51455 0.732233 1.04571C1.20107 0.576869 1.83696 0.313477 2.5 0.313477H17.5C18.163 0.313477 18.7989 0.576869 19.2678 1.04571C19.7366 1.51455 20 2.15044 20 2.81348V23.3135ZM10 6.11348C7.32 6.11348 5.44 7.26348 5.44 7.26348C6.47 6.34348 8.27 5.81348 8.27 5.81348L8.1 5.64348C6.41 5.67348 4.88 6.84348 4.88 6.84348C3.16 10.4335 3.27 13.5335 3.27 13.5335C4.67 15.3435 6.75 15.2135 6.75 15.2135L7.46 14.3135C6.21 14.0435 5.42 12.9335 5.42 12.9335C5.42 12.9335 7.3 14.2135 10 14.2135C12.7 14.2135 14.58 12.9335 14.58 12.9335C14.58 12.9335 13.79 14.0435 12.54 14.3135L13.25 15.2135C13.25 15.2135 15.33 15.3435 16.73 13.5335C16.73 13.5335 16.84 10.4335 15.12 6.84348C15.12 6.84348 13.59 5.67348 11.9 5.64348L11.73 5.81348C11.73 5.81348 13.53 6.34348 14.56 7.26348C14.56 7.26348 12.68 6.11348 10 6.11348ZM7.93 9.90348C8.58 9.90348 9.11 10.4735 9.1 11.1735C9.1 11.8635 8.58 12.4435 7.93 12.4435C7.29 12.4435 6.77 11.8635 6.77 11.1735C6.77 10.4735 7.28 9.90348 7.93 9.90348ZM12.1 9.90348C12.75 9.90348 13.27 10.4735 13.27 11.1735C13.27 11.8635 12.75 12.4435 12.1 12.4435C11.46 12.4435 10.94 11.8635 10.94 11.1735C10.94 10.4735 11.45 9.90348 12.1 9.90348Z" fill="#FFFFFF"/>
</svg>
