<svg width="20" height="21" viewBox="0 0 20 21" fill="none" xmlns="http://www.w3.org/2000/svg">
<path d="M10 0.352539C4.5 0.352539 0 4.84254 0 10.3725C0 15.3725 3.66 19.5225 8.44 20.2725V13.2725H5.9V10.3725H8.44V8.16254C8.44 5.65254 9.93 4.27254 12.22 4.27254C13.31 4.27254 14.45 4.46254 14.45 4.46254V6.93254H13.19C11.95 6.93254 11.56 7.70254 11.56 8.49254V10.3725H14.34L13.89 13.2725H11.56V20.2725C13.9164 19.9004 16.0622 18.6981 17.6099 16.8826C19.1576 15.0671 20.0054 12.7582 20 10.3725C20 4.84254 15.5 0.352539 10 0.352539Z" fill="#FFFFFF"/>
</svg>
