<svg width="20" height="21" viewBox="0 0 20 21" fill="none" xmlns="http://www.w3.org/2000/svg">
<path d="M5.8 0.314453H14.2C17.4 0.314453 20 2.91445 20 6.11445V14.5145C20 16.0527 19.3889 17.528 18.3012 18.6157C17.2135 19.7034 15.7383 20.3145 14.2 20.3145H5.8C2.6 20.3145 0 17.7145 0 14.5145V6.11445C0 4.5762 0.61107 3.10094 1.69878 2.01323C2.78649 0.925523 4.26174 0.314453 5.8 0.314453ZM5.6 2.31445C4.64522 2.31445 3.72955 2.69374 3.05442 3.36887C2.37928 4.044 2 4.95967 2 5.91445V14.7145C2 16.7045 3.61 18.3145 5.6 18.3145H14.4C15.3548 18.3145 16.2705 17.9352 16.9456 17.26C17.6207 16.5849 18 15.6692 18 14.7145V5.91445C18 3.92445 16.39 2.31445 14.4 2.31445H5.6ZM15.25 3.81445C15.5815 3.81445 15.8995 3.94615 16.1339 4.18057C16.3683 4.41499 16.5 4.73293 16.5 5.06445C16.5 5.39597 16.3683 5.71392 16.1339 5.94834C15.8995 6.18276 15.5815 6.31445 15.25 6.31445C14.9185 6.31445 14.6005 6.18276 14.3661 5.94834C14.1317 5.71392 14 5.39597 14 5.06445C14 4.73293 14.1317 4.41499 14.3661 4.18057C14.6005 3.94615 14.9185 3.81445 15.25 3.81445ZM10 5.31445C11.3261 5.31445 12.5979 5.84124 13.5355 6.77892C14.4732 7.7166 15 8.98837 15 10.3145C15 11.6405 14.4732 12.9123 13.5355 13.85C12.5979 14.7877 11.3261 15.3145 10 15.3145C8.67392 15.3145 7.40215 14.7877 6.46447 13.85C5.52678 12.9123 5 11.6405 5 10.3145C5 8.98837 5.52678 7.7166 6.46447 6.77892C7.40215 5.84124 8.67392 5.31445 10 5.31445ZM10 7.31445C9.20435 7.31445 8.44129 7.63052 7.87868 8.19313C7.31607 8.75574 7 9.5188 7 10.3145C7 11.1101 7.31607 11.8732 7.87868 12.4358C8.44129 12.9984 9.20435 13.3145 10 13.3145C10.7956 13.3145 11.5587 12.9984 12.1213 12.4358C12.6839 11.8732 13 11.1101 13 10.3145C13 9.5188 12.6839 8.75574 12.1213 8.19313C11.5587 7.63052 10.7956 7.31445 10 7.31445Z" fill="#FFFFFF"/>
</svg>
