<svg width="20" height="21" viewBox="0 0 20 21" fill="none" xmlns="http://www.w3.org/2000/svg">
<path d="M10.0408 0.313477C4.58078 0.313477 0.130781 4.76348 0.130781 10.2235C0.130781 11.9735 0.590781 13.6735 1.45078 15.1735L0.0507812 20.3135L5.30078 18.9335C6.75078 19.7235 8.38078 20.1435 10.0408 20.1435C15.5008 20.1435 19.9508 15.6935 19.9508 10.2335C19.9508 7.58348 18.9208 5.09348 17.0508 3.22348C15.1808 1.34348 12.6908 0.313477 10.0408 0.313477ZM10.0508 1.98348C12.2508 1.98348 14.3108 2.84348 15.8708 4.40348C17.4208 5.96348 18.2808 8.03348 18.2808 10.2335C18.2808 14.7735 14.5808 18.4635 10.0408 18.4635C8.56078 18.4635 7.11078 18.0735 5.85078 17.3135L5.55078 17.1435L2.43078 17.9635L3.26078 14.9235L3.06078 14.6035C2.24078 13.3135 1.80078 11.7835 1.80078 10.2235C1.81078 5.68348 5.50078 1.98348 10.0508 1.98348ZM6.53078 5.64348C6.37078 5.64348 6.10078 5.70348 5.87078 5.95348C5.65078 6.20348 5.00078 6.81348 5.00078 8.02348C5.00078 9.24348 5.89078 10.4135 6.00078 10.5835C6.14078 10.7535 7.76078 13.2535 10.2508 14.3135C10.8408 14.5835 11.3008 14.7335 11.6608 14.8435C12.2508 15.0335 12.7908 15.0035 13.2208 14.9435C13.7008 14.8735 14.6808 14.3435 14.8908 13.7635C15.1008 13.1835 15.1008 12.6935 15.0408 12.5835C14.9708 12.4835 14.8108 12.4235 14.5608 12.3135C14.3108 12.1735 13.0908 11.5735 12.8708 11.4935C12.6408 11.4135 12.5008 11.3735 12.3108 11.6135C12.1508 11.8635 11.6708 12.4235 11.5308 12.5835C11.3808 12.7535 11.2408 12.7735 11.0008 12.6535C10.7408 12.5235 9.94078 12.2635 9.00078 11.4235C8.26078 10.7635 7.77078 9.95348 7.62078 9.70348C7.50078 9.46348 7.61078 9.31348 7.73078 9.20348C7.84078 9.09348 8.00078 8.91348 8.10078 8.76348C8.23078 8.62348 8.27078 8.51348 8.35078 8.35348C8.43078 8.18348 8.39078 8.04348 8.33078 7.92348C8.27078 7.81348 7.77078 6.57348 7.56078 6.08348C7.36078 5.60348 7.16078 5.66348 7.00078 5.65348C6.86078 5.65348 6.70078 5.64348 6.53078 5.64348Z" fill="#FFFFFF"/>
</svg>
